<mxfile host="" modified="2021-02-11T15:57:06.369Z" agent="5.0 (Windows NT 6.2; Win64; x64) AppleWebKit/537.36 (KHTML, like Gecko) Chrome/84.0.4147.105 Safari/537.36" etag="u2LIKNOhXF_rx8A0rzSS" version="13.7.9" type="embed"><diagram id="zfha6jSmATOJtpAbRMzU" name="add-book-sequence"><mxGraphModel dx="854" dy="614" grid="1" gridSize="10" guides="1" tooltips="1" connect="1" arrows="1" fold="1" page="1" pageScale="1" pageWidth="850" pageHeight="1100" math="0" shadow="0"><root><mxCell id="0"/><mxCell id="1" parent="0"/><mxCell id="2" value="" style="shape=umlLifeline;participant=umlActor;perimeter=lifelinePerimeter;whiteSpace=wrap;html=1;container=1;collapsible=0;recursiveResize=0;verticalAlign=top;spacingTop=36;outlineConnect=0;" parent="1" vertex="1"><mxGeometry x="40" y="40" width="20" height="1440" as="geometry"/></mxCell><mxCell id="3" value="BookServlet" style="shape=umlLifeline;perimeter=lifelinePerimeter;whiteSpace=wrap;html=1;container=1;collapsible=0;recursiveResize=0;outlineConnect=0;" parent="1" vertex="1"><mxGeometry x="130" y="40" width="100" height="1440" as="geometry"/></mxCell><mxCell id="52" value="" style="html=1;points=[];perimeter=orthogonalPerimeter;" parent="3" vertex="1"><mxGeometry x="45" y="190" width="10" height="30" as="geometry"/></mxCell><mxCell id="88" value="" style="html=1;points=[];perimeter=orthogonalPerimeter;" parent="3" vertex="1"><mxGeometry x="45" y="300" width="10" height="80" as="geometry"/></mxCell><mxCell id="26" value="" style="html=1;points=[];perimeter=orthogonalPerimeter;" parent="3" vertex="1"><mxGeometry x="45" y="100" width="10" height="20" as="geometry"/></mxCell><mxCell id="1W7xKVxbhGvjMalEpyDI-118" value="" style="html=1;points=[];perimeter=orthogonalPerimeter;" parent="3" vertex="1"><mxGeometry x="45" y="970" width="10" height="40" as="geometry"/></mxCell><mxCell id="91" value="" style="html=1;points=[];perimeter=orthogonalPerimeter;" parent="3" vertex="1"><mxGeometry x="45" y="1240" width="10" height="30" as="geometry"/></mxCell><mxCell id="99" value="" style="html=1;points=[];perimeter=orthogonalPerimeter;" parent="3" vertex="1"><mxGeometry x="45" y="1330" width="10" height="70" as="geometry"/></mxCell><mxCell id="8" value="BookDao" style="shape=umlLifeline;perimeter=lifelinePerimeter;whiteSpace=wrap;html=1;container=1;collapsible=0;recursiveResize=0;outlineConnect=0;" parent="1" vertex="1"><mxGeometry x="250" y="40" width="100" height="1440" as="geometry"/></mxCell><mxCell id="81" value="" style="html=1;points=[];perimeter=orthogonalPerimeter;" parent="8" vertex="1"><mxGeometry x="45" y="280" width="10" height="20" as="geometry"/></mxCell><mxCell id="51" value="" style="html=1;points=[];perimeter=orthogonalPerimeter;" parent="8" vertex="1"><mxGeometry x="45" y="170" width="10" height="20" as="geometry"/></mxCell><mxCell id="45" value="" style="html=1;points=[];perimeter=orthogonalPerimeter;" parent="8" vertex="1"><mxGeometry x="45" y="120" width="10" height="20" as="geometry"/></mxCell><mxCell id="1W7xKVxbhGvjMalEpyDI-122" value="" style="html=1;points=[];perimeter=orthogonalPerimeter;" parent="8" vertex="1"><mxGeometry x="45" y="1010" width="10" height="30" as="geometry"/></mxCell><mxCell id="1W7xKVxbhGvjMalEpyDI-131" value="" style="html=1;points=[];perimeter=orthogonalPerimeter;" parent="8" vertex="1"><mxGeometry x="45" y="1130" width="10" height="20" as="geometry"/></mxCell><mxCell id="1W7xKVxbhGvjMalEpyDI-140" value="" style="html=1;points=[];perimeter=orthogonalPerimeter;" parent="8" vertex="1"><mxGeometry x="45" y="1220" width="10" height="20" as="geometry"/></mxCell><mxCell id="90" value="" style="html=1;points=[];perimeter=orthogonalPerimeter;" parent="8" vertex="1"><mxGeometry x="45" y="1070" width="10" height="30" as="geometry"/></mxCell><mxCell id="102" value="" style="html=1;points=[];perimeter=orthogonalPerimeter;" parent="8" vertex="1"><mxGeometry x="45" y="220" width="10" height="30" as="geometry"/></mxCell><mxCell id="12" value=":Book" style="shape=umlLifeline;perimeter=lifelinePerimeter;whiteSpace=wrap;html=1;container=1;collapsible=0;recursiveResize=0;outlineConnect=0;" parent="1" vertex="1"><mxGeometry x="370" y="40" width="100" height="1440" as="geometry"/></mxCell><mxCell id="13" value="" style="html=1;points=[];perimeter=orthogonalPerimeter;" parent="12" vertex="1"><mxGeometry x="45" y="250" width="10" height="30" as="geometry"/></mxCell><mxCell id="1W7xKVxbhGvjMalEpyDI-128" value="" style="html=1;points=[];perimeter=orthogonalPerimeter;" parent="12" vertex="1"><mxGeometry x="45" y="1100" width="10" height="30" as="geometry"/></mxCell><mxCell id="14" value="getIsbn()" style="html=1;verticalAlign=bottom;endArrow=block;entryX=0;entryY=0;" parent="1" source="8" target="13" edge="1"><mxGeometry x="0.0476" relative="1" as="geometry"><mxPoint x="345" y="140" as="sourcePoint"/><mxPoint x="1" as="offset"/></mxGeometry></mxCell><mxCell id="15" value="isbn" style="html=1;verticalAlign=bottom;endArrow=open;dashed=1;endSize=8;exitX=0;exitY=0.95;" parent="1" source="13" target="8" edge="1"><mxGeometry relative="1" as="geometry"><mxPoint x="300" y="159" as="targetPoint"/></mxGeometry></mxCell><mxCell id="25" value="FileManager" style="shape=umlLifeline;perimeter=lifelinePerimeter;whiteSpace=wrap;html=1;container=1;collapsible=0;recursiveResize=0;outlineConnect=0;" parent="1" vertex="1"><mxGeometry x="980" y="40" width="100" height="1440" as="geometry"/></mxCell><mxCell id="29" value="" style="html=1;points=[];perimeter=orthogonalPerimeter;" parent="25" vertex="1"><mxGeometry x="45" y="140" width="10" height="30" as="geometry"/></mxCell><mxCell id="77" value="" style="html=1;points=[];perimeter=orthogonalPerimeter;" parent="25" vertex="1"><mxGeometry x="45" y="440" width="10" height="30" as="geometry"/></mxCell><mxCell id="1W7xKVxbhGvjMalEpyDI-137" value="" style="html=1;points=[];perimeter=orthogonalPerimeter;" parent="25" vertex="1"><mxGeometry x="45" y="1200" width="10" height="20" as="geometry"/></mxCell><mxCell id="MQEpZuaR0_QrMn5EcKXe-88" value="" style="html=1;points=[];perimeter=orthogonalPerimeter;" parent="25" vertex="1"><mxGeometry x="45" y="1290" width="10" height="20" as="geometry"/></mxCell><mxCell id="27" value="REQUEST" style="html=1;verticalAlign=bottom;endArrow=block;entryX=0;entryY=0;" parent="1" source="2" target="26" edge="1"><mxGeometry relative="1" as="geometry"><mxPoint x="100" y="125" as="sourcePoint"/></mxGeometry></mxCell><mxCell id="31" value="list" style="html=1;verticalAlign=bottom;endArrow=open;dashed=1;endSize=8;exitX=0;exitY=0.95;" parent="1" source="29" target="8" edge="1"><mxGeometry relative="1" as="geometry"><mxPoint x="300" y="178" as="targetPoint"/></mxGeometry></mxCell><mxCell id="30" value="readFromFile()" style="html=1;verticalAlign=bottom;endArrow=block;entryX=0;entryY=0;exitX=0.682;exitY=1.01;exitDx=0;exitDy=0;exitPerimeter=0;" parent="1" source="45" target="29" edge="1"><mxGeometry relative="1" as="geometry"><mxPoint x="300" y="140" as="sourcePoint"/></mxGeometry></mxCell><mxCell id="46" value="importBookList()" style="html=1;verticalAlign=bottom;endArrow=block;entryX=0;entryY=0;" parent="1" source="26" target="45" edge="1"><mxGeometry relative="1" as="geometry"><mxPoint x="220" y="120" as="sourcePoint"/></mxGeometry></mxCell><mxCell id="47" value="" style="html=1;verticalAlign=bottom;endArrow=open;dashed=1;endSize=8;exitX=0.048;exitY=0.969;exitDx=0;exitDy=0;exitPerimeter=0;" parent="1" source="51" target="3" edge="1"><mxGeometry x="-0.0903" y="-29" relative="1" as="geometry"><mxPoint x="220" y="196" as="targetPoint"/><mxPoint x="270" y="196" as="sourcePoint"/><mxPoint as="offset"/></mxGeometry></mxCell><mxCell id="59" value="AuthorServlet" style="shape=umlLifeline;perimeter=lifelinePerimeter;whiteSpace=wrap;html=1;container=1;collapsible=0;recursiveResize=0;outlineConnect=0;" parent="1" vertex="1"><mxGeometry x="500" y="40" width="100" height="1440" as="geometry"/></mxCell><mxCell id="85" value="" style="html=1;points=[];perimeter=orthogonalPerimeter;" parent="59" vertex="1"><mxGeometry x="45" y="380" width="10" height="40" as="geometry"/></mxCell><mxCell id="1W7xKVxbhGvjMalEpyDI-90" value="" style="html=1;points=[];perimeter=orthogonalPerimeter;" parent="59" vertex="1"><mxGeometry x="45" y="490" width="10" height="40" as="geometry"/></mxCell><mxCell id="1W7xKVxbhGvjMalEpyDI-121" value="" style="html=1;points=[];perimeter=orthogonalPerimeter;" parent="59" vertex="1"><mxGeometry x="45" y="930" width="10" height="40" as="geometry"/></mxCell><mxCell id="97" value="" style="html=1;points=[];perimeter=orthogonalPerimeter;" parent="59" vertex="1"><mxGeometry x="45" y="610" width="10" height="70" as="geometry"/></mxCell><mxCell id="61" value="AuthorDao" style="shape=umlLifeline;perimeter=lifelinePerimeter;whiteSpace=wrap;html=1;container=1;collapsible=0;recursiveResize=0;outlineConnect=0;" parent="1" vertex="1"><mxGeometry x="630" y="40" width="100" height="1440" as="geometry"/></mxCell><mxCell id="63" value="" style="html=1;points=[];perimeter=orthogonalPerimeter;" parent="61" vertex="1"><mxGeometry x="45" y="530" width="10" height="20" as="geometry"/></mxCell><mxCell id="74" value="" style="html=1;points=[];perimeter=orthogonalPerimeter;" parent="61" vertex="1"><mxGeometry x="45" y="420" width="10" height="20" as="geometry"/></mxCell><mxCell id="1W7xKVxbhGvjMalEpyDI-88" value="" style="html=1;points=[];perimeter=orthogonalPerimeter;" parent="61" vertex="1"><mxGeometry x="45" y="467.5" width="10" height="22.5" as="geometry"/></mxCell><mxCell id="1W7xKVxbhGvjMalEpyDI-94" value="" style="html=1;points=[];perimeter=orthogonalPerimeter;" parent="61" vertex="1"><mxGeometry x="45" y="680" width="10" height="30" as="geometry"/></mxCell><mxCell id="1W7xKVxbhGvjMalEpyDI-107" value="" style="html=1;points=[];perimeter=orthogonalPerimeter;direction=east;" parent="61" vertex="1"><mxGeometry x="45" y="790" width="10" height="30" as="geometry"/></mxCell><mxCell id="1W7xKVxbhGvjMalEpyDI-110" value="" style="html=1;points=[];perimeter=orthogonalPerimeter;" parent="61" vertex="1"><mxGeometry x="45" y="890" width="10" height="40" as="geometry"/></mxCell><mxCell id="1W7xKVxbhGvjMalEpyDI-125" value="" style="html=1;points=[];perimeter=orthogonalPerimeter;" parent="61" vertex="1"><mxGeometry x="45" y="1040" width="10" height="30" as="geometry"/></mxCell><mxCell id="1W7xKVxbhGvjMalEpyDI-143" value="" style="html=1;points=[];perimeter=orthogonalPerimeter;" parent="61" vertex="1"><mxGeometry x="45" y="1270" width="10" height="20" as="geometry"/></mxCell><mxCell id="MQEpZuaR0_QrMn5EcKXe-91" value="" style="html=1;points=[];perimeter=orthogonalPerimeter;" parent="61" vertex="1"><mxGeometry x="45" y="1310" width="10" height="20" as="geometry"/></mxCell><mxCell id="62" value=":Author" style="shape=umlLifeline;perimeter=lifelinePerimeter;whiteSpace=wrap;html=1;container=1;collapsible=0;recursiveResize=0;outlineConnect=0;" parent="1" vertex="1"><mxGeometry x="820" y="40" width="100" height="1440" as="geometry"/></mxCell><mxCell id="66" value="" style="html=1;points=[];perimeter=orthogonalPerimeter;" parent="62" vertex="1"><mxGeometry x="45" y="550" width="10" height="40" as="geometry"/></mxCell><mxCell id="1W7xKVxbhGvjMalEpyDI-97" value="" style="html=1;points=[];perimeter=orthogonalPerimeter;" parent="62" vertex="1"><mxGeometry x="45" y="710" width="10" height="80" as="geometry"/></mxCell><mxCell id="1W7xKVxbhGvjMalEpyDI-102" value="" style="html=1;points=[];perimeter=orthogonalPerimeter;" parent="62" vertex="1"><mxGeometry x="45" y="750" width="10" height="40" as="geometry"/></mxCell><mxCell id="1W7xKVxbhGvjMalEpyDI-103" value="increadeIdCounter()" style="edgeStyle=orthogonalEdgeStyle;html=1;align=left;spacingLeft=2;endArrow=block;entryX=1;entryY=0;" parent="62" target="1W7xKVxbhGvjMalEpyDI-102" edge="1"><mxGeometry relative="1" as="geometry"><mxPoint x="55" y="730" as="sourcePoint"/><Array as="points"><mxPoint x="75" y="730"/><mxPoint x="75" y="750"/></Array></mxGeometry></mxCell><mxCell id="64" value="searchForAuthor()" style="html=1;verticalAlign=bottom;endArrow=block;entryX=0;entryY=0;" parent="1" source="59" target="63" edge="1"><mxGeometry relative="1" as="geometry"><mxPoint x="550" y="410" as="sourcePoint"/></mxGeometry></mxCell><mxCell id="67" value="contains()" style="html=1;verticalAlign=bottom;endArrow=block;entryX=0;entryY=0;" parent="1" source="61" target="66" edge="1"><mxGeometry relative="1" as="geometry"><mxPoint x="610" y="360" as="sourcePoint"/></mxGeometry></mxCell><mxCell id="75" value="importAuthorList()" style="html=1;verticalAlign=bottom;endArrow=block;entryX=0;entryY=0;" parent="1" source="59" target="74" edge="1"><mxGeometry relative="1" as="geometry"><mxPoint x="600" y="380" as="sourcePoint"/></mxGeometry></mxCell><mxCell id="78" value="readFromFile()" style="html=1;verticalAlign=bottom;endArrow=block;entryX=0;entryY=0;" parent="1" source="61" target="77" edge="1"><mxGeometry relative="1" as="geometry"><mxPoint x="950.5" y="440" as="sourcePoint"/></mxGeometry></mxCell><mxCell id="79" value="authorList" style="html=1;verticalAlign=bottom;endArrow=open;dashed=1;endSize=8;exitX=0;exitY=0.95;" parent="1" source="77" target="61" edge="1"><mxGeometry relative="1" as="geometry"><mxPoint x="950.5" y="516" as="targetPoint"/></mxGeometry></mxCell><mxCell id="83" value="exists" style="html=1;verticalAlign=bottom;endArrow=open;dashed=1;endSize=8;exitX=0;exitY=0.95;" parent="1" source="81" target="3" edge="1"><mxGeometry relative="1" as="geometry"><mxPoint x="260" y="386" as="targetPoint"/></mxGeometry></mxCell><mxCell id="86" value="forward()" style="html=1;verticalAlign=bottom;endArrow=block;entryX=0;entryY=0;" parent="1" source="3" target="85" edge="1"><mxGeometry relative="1" as="geometry"><mxPoint x="470" y="400" as="sourcePoint"/></mxGeometry></mxCell><mxCell id="1W7xKVxbhGvjMalEpyDI-89" value="" style="html=1;verticalAlign=bottom;endArrow=open;dashed=1;endSize=8;" parent="1" target="59" edge="1"><mxGeometry relative="1" as="geometry"><mxPoint x="680" y="530" as="sourcePoint"/><mxPoint x="600" y="530" as="targetPoint"/></mxGeometry></mxCell><mxCell id="1W7xKVxbhGvjMalEpyDI-93" value="listofAuthor" style="html=1;verticalAlign=bottom;endArrow=open;dashed=1;endSize=8;exitX=0;exitY=0.95;" parent="1" source="1W7xKVxbhGvjMalEpyDI-91" target="59" edge="1"><mxGeometry relative="1" as="geometry"><mxPoint x="605" y="726" as="targetPoint"/></mxGeometry></mxCell><mxCell id="1W7xKVxbhGvjMalEpyDI-95" value="addNewAuthor()" style="html=1;verticalAlign=bottom;endArrow=block;entryX=0;entryY=0;" parent="1" source="59" target="1W7xKVxbhGvjMalEpyDI-94" edge="1"><mxGeometry relative="1" as="geometry"><mxPoint x="605" y="720" as="sourcePoint"/></mxGeometry></mxCell><mxCell id="1W7xKVxbhGvjMalEpyDI-98" value="new Author()" style="html=1;verticalAlign=bottom;endArrow=block;entryX=0;entryY=0;" parent="1" source="61" target="1W7xKVxbhGvjMalEpyDI-97" edge="1"><mxGeometry relative="1" as="geometry"><mxPoint x="795" y="750" as="sourcePoint"/></mxGeometry></mxCell><mxCell id="1W7xKVxbhGvjMalEpyDI-99" value="autor" style="html=1;verticalAlign=bottom;endArrow=open;dashed=1;endSize=8;exitX=0;exitY=0.95;" parent="1" source="1W7xKVxbhGvjMalEpyDI-97" target="61" edge="1"><mxGeometry relative="1" as="geometry"><mxPoint x="795" y="826" as="targetPoint"/></mxGeometry></mxCell><mxCell id="1W7xKVxbhGvjMalEpyDI-109" value="" style="html=1;verticalAlign=bottom;endArrow=open;dashed=1;endSize=8;exitX=0;exitY=0.95;" parent="1" source="1W7xKVxbhGvjMalEpyDI-107" target="59" edge="1"><mxGeometry relative="1" as="geometry"><mxPoint x="580" y="906" as="targetPoint"/></mxGeometry></mxCell><mxCell id="1W7xKVxbhGvjMalEpyDI-111" value="choseFromList()" style="html=1;verticalAlign=bottom;endArrow=block;entryX=0;entryY=0;" parent="1" source="1W7xKVxbhGvjMalEpyDI-113" target="1W7xKVxbhGvjMalEpyDI-110" edge="1"><mxGeometry relative="1" as="geometry"><mxPoint x="605" y="910" as="sourcePoint"/></mxGeometry></mxCell><mxCell id="1W7xKVxbhGvjMalEpyDI-112" value="author" style="html=1;verticalAlign=bottom;endArrow=open;dashed=1;endSize=8;exitX=0;exitY=0.95;" parent="1" source="1W7xKVxbhGvjMalEpyDI-110" target="59" edge="1"><mxGeometry relative="1" as="geometry"><mxPoint x="605" y="986" as="targetPoint"/></mxGeometry></mxCell><mxCell id="1W7xKVxbhGvjMalEpyDI-113" value="" style="html=1;points=[];perimeter=orthogonalPerimeter;" parent="1" vertex="1"><mxGeometry x="545" y="860" width="10" height="70" as="geometry"/></mxCell><mxCell id="1W7xKVxbhGvjMalEpyDI-119" value="forward()" style="html=1;verticalAlign=bottom;endArrow=block;entryX=1;entryY=0;" parent="1" source="59" target="1W7xKVxbhGvjMalEpyDI-118" edge="1"><mxGeometry relative="1" as="geometry"><mxPoint x="245" y="990" as="sourcePoint"/></mxGeometry></mxCell><mxCell id="1W7xKVxbhGvjMalEpyDI-123" value="addNewBook()" style="html=1;verticalAlign=bottom;endArrow=block;entryX=0;entryY=0;" parent="1" source="3" target="1W7xKVxbhGvjMalEpyDI-122" edge="1"><mxGeometry relative="1" as="geometry"><mxPoint x="225" y="1050" as="sourcePoint"/></mxGeometry></mxCell><mxCell id="1W7xKVxbhGvjMalEpyDI-126" value="getAuthorId()" style="html=1;verticalAlign=bottom;endArrow=block;entryX=0;entryY=0;" parent="1" source="8" target="1W7xKVxbhGvjMalEpyDI-125" edge="1"><mxGeometry relative="1" as="geometry"><mxPoint x="475" y="1080" as="sourcePoint"/></mxGeometry></mxCell><mxCell id="1W7xKVxbhGvjMalEpyDI-127" value="authorId" style="html=1;verticalAlign=bottom;endArrow=open;dashed=1;endSize=8;exitX=0;exitY=0.95;" parent="1" source="1W7xKVxbhGvjMalEpyDI-125" target="8" edge="1"><mxGeometry relative="1" as="geometry"><mxPoint x="475" y="1156" as="targetPoint"/></mxGeometry></mxCell><mxCell id="1W7xKVxbhGvjMalEpyDI-129" value="new Book()" style="html=1;verticalAlign=bottom;endArrow=block;entryX=0;entryY=0;" parent="1" source="8" target="1W7xKVxbhGvjMalEpyDI-128" edge="1"><mxGeometry relative="1" as="geometry"><mxPoint x="345" y="1180" as="sourcePoint"/></mxGeometry></mxCell><mxCell id="1W7xKVxbhGvjMalEpyDI-130" value="book" style="html=1;verticalAlign=bottom;endArrow=open;dashed=1;endSize=8;exitX=0;exitY=0.95;" parent="1" source="1W7xKVxbhGvjMalEpyDI-128" target="8" edge="1"><mxGeometry relative="1" as="geometry"><mxPoint x="345" y="1256" as="targetPoint"/></mxGeometry></mxCell><mxCell id="1W7xKVxbhGvjMalEpyDI-133" value="" style="html=1;verticalAlign=bottom;endArrow=open;dashed=1;endSize=8;exitX=0;exitY=0.95;" parent="1" source="1W7xKVxbhGvjMalEpyDI-131" target="3" edge="1"><mxGeometry relative="1" as="geometry"><mxPoint x="225" y="1286" as="targetPoint"/></mxGeometry></mxCell><mxCell id="1W7xKVxbhGvjMalEpyDI-135" value="exportList()" style="html=1;verticalAlign=bottom;endArrow=block;entryX=0;entryY=0;" parent="1" source="3" target="1W7xKVxbhGvjMalEpyDI-134" edge="1"><mxGeometry relative="1" as="geometry"><mxPoint x="960" y="1250" as="sourcePoint"/></mxGeometry></mxCell><mxCell id="1W7xKVxbhGvjMalEpyDI-138" value="WriteOnFile()" style="html=1;verticalAlign=bottom;endArrow=block;entryX=0;entryY=0;" parent="1" source="1W7xKVxbhGvjMalEpyDI-134" target="1W7xKVxbhGvjMalEpyDI-137" edge="1"><mxGeometry relative="1" as="geometry"><mxPoint x="955" y="1320" as="sourcePoint"/></mxGeometry></mxCell><mxCell id="1W7xKVxbhGvjMalEpyDI-139" value="" style="html=1;verticalAlign=bottom;endArrow=open;dashed=1;endSize=8;exitX=0;exitY=0.95;" parent="1" source="1W7xKVxbhGvjMalEpyDI-137" target="8" edge="1"><mxGeometry relative="1" as="geometry"><mxPoint x="721.811279296875" y="1390" as="targetPoint"/></mxGeometry></mxCell><mxCell id="1W7xKVxbhGvjMalEpyDI-142" value="" style="html=1;verticalAlign=bottom;endArrow=open;dashed=1;endSize=8;exitX=0;exitY=0.95;" parent="1" source="1W7xKVxbhGvjMalEpyDI-140" target="3" edge="1"><mxGeometry relative="1" as="geometry"><mxPoint x="225" y="1436" as="targetPoint"/></mxGeometry></mxCell><mxCell id="1W7xKVxbhGvjMalEpyDI-144" value="exportList()" style="html=1;verticalAlign=bottom;endArrow=block;entryX=0;entryY=0;" parent="1" source="3" target="1W7xKVxbhGvjMalEpyDI-143" edge="1"><mxGeometry relative="1" as="geometry"><mxPoint x="605" y="1430" as="sourcePoint"/></mxGeometry></mxCell><mxCell id="MQEpZuaR0_QrMn5EcKXe-89" value="writeOnFile()" style="html=1;verticalAlign=bottom;endArrow=block;entryX=0;entryY=0;" parent="1" source="61" target="MQEpZuaR0_QrMn5EcKXe-88" edge="1"><mxGeometry relative="1" as="geometry"><mxPoint x="955" y="1490" as="sourcePoint"/></mxGeometry></mxCell><mxCell id="MQEpZuaR0_QrMn5EcKXe-90" value="" style="html=1;verticalAlign=bottom;endArrow=open;dashed=1;endSize=8;exitX=0;exitY=0.95;" parent="1" source="MQEpZuaR0_QrMn5EcKXe-88" target="61" edge="1"><mxGeometry relative="1" as="geometry"><mxPoint x="955" y="1566" as="targetPoint"/></mxGeometry></mxCell><mxCell id="MQEpZuaR0_QrMn5EcKXe-93" value="" style="html=1;verticalAlign=bottom;endArrow=open;dashed=1;endSize=8;exitX=0;exitY=0.95;" parent="1" source="MQEpZuaR0_QrMn5EcKXe-91" target="3" edge="1"><mxGeometry relative="1" as="geometry"><mxPoint x="570" y="1566" as="targetPoint"/></mxGeometry></mxCell><mxCell id="1W7xKVxbhGvjMalEpyDI-91" value="" style="html=1;points=[];perimeter=orthogonalPerimeter;" parent="1" vertex="1"><mxGeometry x="675" y="630" width="10" height="20" as="geometry"/></mxCell><mxCell id="89" value="listofSearchedAuthor" style="html=1;verticalAlign=bottom;endArrow=open;dashed=1;endSize=8;exitX=0;exitY=0.95;" parent="1" source="66" target="1W7xKVxbhGvjMalEpyDI-91" edge="1"><mxGeometry relative="1" as="geometry"><mxPoint x="679.5" y="628" as="targetPoint"/><mxPoint x="865" y="628" as="sourcePoint"/></mxGeometry></mxCell><mxCell id="92" value="list: empty" style="shape=umlFrame;whiteSpace=wrap;html=1;width=80;height=30;" parent="1" vertex="1"><mxGeometry x="450" y="680" width="560" height="220" as="geometry"/></mxCell><mxCell id="93" value="else" style="shape=umlFrame;whiteSpace=wrap;html=1;" parent="1" vertex="1"><mxGeometry x="450" y="900" width="560" height="90" as="geometry"/></mxCell><mxCell id="1W7xKVxbhGvjMalEpyDI-134" value="" style="html=1;points=[];perimeter=orthogonalPerimeter;" parent="1" vertex="1"><mxGeometry x="295" y="1220" width="10" height="20" as="geometry"/></mxCell><mxCell id="96" value="exists: false" style="shape=umlFrame;whiteSpace=wrap;html=1;width=70;height=30;" parent="1" vertex="1"><mxGeometry x="90" y="370" width="980" height="1030" as="geometry"/></mxCell><mxCell id="101" value="RESPONSE" style="html=1;verticalAlign=bottom;endArrow=open;dashed=1;endSize=8;exitX=0;exitY=0.95;" parent="1" source="99" target="2" edge="1"><mxGeometry relative="1" as="geometry"><mxPoint x="70" y="1536" as="targetPoint"/></mxGeometry></mxCell><mxCell id="103" value="isbnExists()" style="html=1;verticalAlign=bottom;endArrow=block;entryX=0;entryY=0;" parent="1" source="3" target="102" edge="1"><mxGeometry relative="1" as="geometry"><mxPoint x="225" y="210" as="sourcePoint"/></mxGeometry></mxCell></root></mxGraphModel></diagram></mxfile>